<?xml version="1.0" encoding="UTF-8" standalone="no"?>
<svg
   xmlns:dc="http://purl.org/dc/elements/1.1/"
   xmlns:cc="http://creativecommons.org/ns#"
   xmlns:rdf="http://www.w3.org/1999/02/22-rdf-syntax-ns#"
   xmlns:svg="http://www.w3.org/2000/svg"
   xmlns="http://www.w3.org/2000/svg"
   viewBox="0 0 128 128"
   height="128"
   width="128"
   id="svg2"
   version="1.1">
  <metadata
     id="metadata8">
    <rdf:RDF>
      <cc:Work
         rdf:about="">
        <dc:format>image/svg+xml</dc:format>
        <dc:type
           rdf:resource="http://purl.org/dc/dcmitype/StillImage" />
        <dc:title></dc:title>
      </cc:Work>
    </rdf:RDF>
  </metadata>
  <defs
     id="defs6" />
  <path
     id="path12"
     d="M 55.23809,127.48454 C 41.01298,125.74013 29.75713,120.07024 18.62693,109.04245 12.06097,102.53691 9.74681,99.386657 6.47926,92.505929 1.42476,81.862272 0,75.705193 0,64.505929 0,53.306665 1.42476,47.149586 6.47926,36.505929 12.18403,24.492939 23.2251,13.451874 35.23809,7.7470975 45.94148,2.664231 52.18943,1.2310488 63.64529,1.2309291 c 17.598705,-1.839e-4 31.085892,5.7140015 44.20396,18.7281169 12.70371,12.603042 18.71542,26.912246 18.71542,44.546883 0,10.851317 -1.53813,17.408736 -6.56775,28 -5.70477,12.012991 -16.74584,23.054061 -28.758829,28.758831 -12.349451,5.86456 -23.369961,7.76859 -36.000001,6.21978 z m 6,-26.86203 V 81.739083 l -2.52387,-0.482467 c -1.38812,-0.265358 -2.6848,-0.205317 -2.8815,0.133422 -18.85538,32.471542 -18.63569,32.023032 -16.30208,33.281422 4.17591,2.25182 13.21442,4.727 17.45745,4.78069 l 4.25,0.0538 z m 21.511414,15.74863 c 3.278516,-1.30087 5.852643,-2.81521 5.720281,-3.36521 -0.132361,-0.55 -4.287767,-8.02526 -9.234235,-16.6117 C 70.92622,81.970295 70.05162,80.818919 67.74003,81.260807 l -2.50194,0.478276 v 19.022317 19.02231 l 5.77524,-0.52368 c 3.17638,-0.28803 8.45766,-1.58803 11.736174,-2.88889 z M 43.20205,95.140732 c 5.03889,-8.725858 8.91856,-16.498565 8.62151,-17.272681 -0.29706,-0.774116 -1.17348,-1.65053 -1.94759,-1.947587 -1.01189,-0.388299 -31.06518,15.833924 -33.39778,18.027519 -0.14294,0.134426 1.3514,2.354662 3.32076,4.933856 3.18939,4.177021 13.28186,13.139101 13.97305,12.408031 0.14765,-0.15617 4.39117,-7.42328 9.43005,-16.149138 z m 59.96167,7.838778 c 8.47834,-8.944071 9.07962,-7.736986 -9.119208,-18.307047 C 85.236945,79.556941 77.3922,75.616551 76.61174,75.91604 c -0.78046,0.29949 -1.66405,1.183082 -1.96354,1.963539 -0.29949,0.780457 3.64253,8.628009 8.760045,17.439005 l 9.30457,16.019996 2.843114,-1.66633 c 1.563713,-0.91647 4.987221,-3.92821 7.607791,-6.69274 z M 46.13444,71.255929 c 0.68501,-4.956784 1.50763,-4.75 -18.89635,-4.75 h -19 v 3.818499 c 0,4.121263 2.35992,13.017515 4.61326,17.390765 l 1.39597,2.709264 15.89174,-9.209264 c 8.74045,-5.065095 15.93838,-9.546764 15.99538,-9.959264 z m 70.13629,9.408895 c 1.08205,-3.503261 1.96736,-8.122164 1.96736,-10.26423 V 66.505929 H 99.354671 80.471245 l -0.478787,2.504614 c -0.441068,2.307305 0.632952,3.143713 13.633423,10.61721 7.761719,4.461928 15.012209,8.699253 16.112209,9.416279 2.64024,1.721018 3.92002,0.07949 6.53264,-8.379208 z m -43.68974,-7.04026 c 2.8367,-2.836692 3.1571,-3.762116 3.1571,-9.118635 0,-5.36608 -0.31775,-6.279293 -3.18126,-9.142796 -2.62301,-2.623017 -4.15744,-3.262211 -8.74429,-3.642587 -5.42552,-0.449927 -5.6651,-0.359263 -9.6921,3.667736 -4.01685,4.016858 -4.11666,4.278584 -3.6728,9.631047 0.72321,8.720866 5.42397,12.750468 14.13335,12.115442 3.83551,-0.279658 5.49963,-1.009837 8,-3.510207 z M 46.4874,59.982062 c 0.26536,-1.388127 0.20532,-2.684802 -0.13342,-2.881499 -0.33874,-0.196698 -7.70083,-4.443559 -16.3602,-9.43747 L 14.24946,38.583256 12.85243,41.294592 C 10.59812,45.669684 8.23809,54.565369 8.23809,58.68743 v 3.818499 h 18.88342 18.88343 z m 71.75069,-1.294632 c 0,-4.122061 -2.36003,-13.017746 -4.61433,-17.392838 l -1.39704,-2.711336 -15.744316,9.079837 c -8.659372,4.993911 -16.021464,9.240772 -16.360204,9.43747 -0.33874,0.196697 -0.39878,1.493372 -0.133422,2.881499 l 0.482467,2.523867 H 99.354671 118.23809 Z M 51.47376,51.496947 C 52.17977,50.375574 50.03149,45.83512 43.11039,33.820699 l -9.31342,-16.167267 -2.85992,1.676249 c -3.21287,1.883121 -11.81956,10.66456 -13.46417,13.737545 -0.98646,1.84322 0.21432,2.760802 14.59516,11.152924 8.61853,5.029454 16.29682,9.063759 17.06287,8.965121 0.76605,-0.09864 1.82033,-0.858384 2.34285,-1.688324 z M 94.160225,44.272188 C 112.3769,33.691763 111.83525,34.943086 102.31809,25.425929 92.747125,15.854964 93.839257,15.444938 84.161713,32.242482 73.27505,51.138719 73.71411,50.169642 75.21834,51.982131 c 0.69555,0.838089 1.66496,1.523798 2.15424,1.523798 0.48928,0 8.043721,-4.155184 16.787645,-9.233741 z M 61.23809,28.389352 V 9.5059295 h -3.8185 c -4.12206,0 -13.01774,2.3600335 -17.39284,4.6143355 l -2.71133,1.397038 9.07983,15.744313 c 4.99392,8.659372 9.24078,16.021464 9.43747,16.360204 0.1967,0.338739 1.49338,0.39878 2.8815,0.133422 l 2.52387,-0.482467 z M 80.076048,31.262351 89.163607,15.518773 86.450849,14.121 C 82.074495,11.866043 73.1792,9.5059295 69.05659,9.5059295 h -3.8185 V 28.436378 c 0,18.855102 0.009,18.931924 2.25,19.301051 1.2375,0.203831 2.53134,0.122629 2.8752,-0.180449 0.34386,-0.303078 4.7146,-7.635661 9.712758,-16.294629 z"
     style="fill:#000000" />
</svg>
